<?xml version="1.0" encoding="UTF-8" standalone="no"?>
<!DOCTYPE svg PUBLIC "-//W3C//DTD SVG 1.1//EN"
 "http://www.w3.org/Graphics/SVG/1.1/DTD/svg11.dtd">
<!-- Generated by graphviz version 2.26.3 (20100126.1600)
 -->
<!-- Title: controllers_diagram Pages: 1 -->
<svg width="1118pt" height="865pt"
 viewBox="0.00 0.00 1118.00 864.84" xmlns="http://www.w3.org/2000/svg" xmlns:xlink="http://www.w3.org/1999/xlink">
<g id="graph1" class="graph" transform="scale(1 1) rotate(0) translate(4 860.836)">
<title>controllers_diagram</title>
<polygon fill="white" stroke="white" points="-4,5 -4,-860.836 1115,-860.836 1115,5 -4,5"/>
<!-- _diagram_info -->
<g id="node1" class="node"><title>_diagram_info</title>
<text text-anchor="start" x="867" y="-469.3" font-family="Times Roman,serif" font-size="13.00">Controllers diagram</text>
<text text-anchor="start" x="867" y="-453.3" font-family="Times Roman,serif" font-size="13.00">Date: Oct 07 2014 &#45; 06:21</text>
<text text-anchor="start" x="867" y="-437.3" font-family="Times Roman,serif" font-size="13.00">Migration version: 20140718095222</text>
<text text-anchor="start" x="867" y="-421.3" font-family="Times Roman,serif" font-size="13.00">Generated by RailRoady 1.1.2</text>
<text text-anchor="start" x="867" y="-405.3" font-family="Times Roman,serif" font-size="13.00">http://railroady.prestonlee.com</text>
</g>
<!-- UsersController -->
<g id="node2" class="node"><title>UsersController</title>
<polyline fill="none" stroke="black" points="75.5338,-377.393 175.534,-377.393 "/>
<path fill="none" stroke="black" d="M175.534,-377.393C181.534,-377.393 187.534,-383.393 187.534,-389.393"/>
<polyline fill="none" stroke="black" points="187.534,-389.393 187.534,-481.393 "/>
<path fill="none" stroke="black" d="M187.534,-481.393C187.534,-487.393 181.534,-493.393 175.534,-493.393"/>
<polyline fill="none" stroke="black" points="175.534,-493.393 75.5338,-493.393 "/>
<path fill="none" stroke="black" d="M75.5338,-493.393C69.5338,-493.393 63.5338,-487.393 63.5338,-481.393"/>
<polyline fill="none" stroke="black" points="63.5338,-481.393 63.5338,-389.393 "/>
<path fill="none" stroke="black" d="M63.5338,-389.393C63.5338,-383.393 69.5338,-377.393 75.5338,-377.393"/>
<text text-anchor="middle" x="125.534" y="-476.793" font-family="Times Roman,serif" font-size="14.00">UsersController</text>
<polyline fill="none" stroke="black" points="63.5338,-468.393 187.534,-468.393 "/>
<text text-anchor="start" x="71.5338" y="-451.793" font-family="Times Roman,serif" font-size="14.00">index</text>
<text text-anchor="start" x="71.5338" y="-434.793" font-family="Times Roman,serif" font-size="14.00">show</text>
<polyline fill="none" stroke="black" points="63.5338,-426.393 187.534,-426.393 "/>
<polyline fill="none" stroke="black" points="63.5338,-402.393 187.534,-402.393 "/>
<text text-anchor="start" x="71.5338" y="-385.793" font-family="Times Roman,serif" font-size="14.00">_layout</text>
</g>
<!-- BgeigieImportsController -->
<g id="node3" class="node"><title>BgeigieImportsController</title>
<polyline fill="none" stroke="black" points="573.49,-1.5 796.49,-1.5 "/>
<path fill="none" stroke="black" d="M796.49,-1.5C802.49,-1.5 808.49,-7.5 808.49,-13.5"/>
<polyline fill="none" stroke="black" points="808.49,-13.5 808.49,-292.5 "/>
<path fill="none" stroke="black" d="M808.49,-292.5C808.49,-298.5 802.49,-304.5 796.49,-304.5"/>
<polyline fill="none" stroke="black" points="796.49,-304.5 573.49,-304.5 "/>
<path fill="none" stroke="black" d="M573.49,-304.5C567.49,-304.5 561.49,-298.5 561.49,-292.5"/>
<polyline fill="none" stroke="black" points="561.49,-292.5 561.49,-13.5 "/>
<path fill="none" stroke="black" d="M561.49,-13.5C561.49,-7.5 567.49,-1.5 573.49,-1.5"/>
<text text-anchor="middle" x="684.99" y="-287.9" font-family="Times Roman,serif" font-size="14.00">BgeigieImportsController</text>
<polyline fill="none" stroke="black" points="561.49,-279.5 808.49,-279.5 "/>
<text text-anchor="start" x="569.49" y="-262.9" font-family="Times Roman,serif" font-size="14.00">_one_time_conditions_valid_216?</text>
<text text-anchor="start" x="569.49" y="-245.9" font-family="Times Roman,serif" font-size="14.00">_one_time_conditions_valid_220?</text>
<text text-anchor="start" x="569.49" y="-228.9" font-family="Times Roman,serif" font-size="14.00">approve</text>
<text text-anchor="start" x="569.49" y="-211.9" font-family="Times Roman,serif" font-size="14.00">create</text>
<text text-anchor="start" x="569.49" y="-194.9" font-family="Times Roman,serif" font-size="14.00">destroy</text>
<text text-anchor="start" x="569.49" y="-177.9" font-family="Times Roman,serif" font-size="14.00">edit</text>
<text text-anchor="start" x="569.49" y="-160.9" font-family="Times Roman,serif" font-size="14.00">fixdrive</text>
<text text-anchor="start" x="569.49" y="-143.9" font-family="Times Roman,serif" font-size="14.00">index</text>
<text text-anchor="start" x="569.49" y="-126.9" font-family="Times Roman,serif" font-size="14.00">new</text>
<text text-anchor="start" x="569.49" y="-109.9" font-family="Times Roman,serif" font-size="14.00">show</text>
<text text-anchor="start" x="569.49" y="-92.9" font-family="Times Roman,serif" font-size="14.00">submit</text>
<text text-anchor="start" x="569.49" y="-75.9" font-family="Times Roman,serif" font-size="14.00">update</text>
<polyline fill="none" stroke="black" points="561.49,-67.5 808.49,-67.5 "/>
<polyline fill="none" stroke="black" points="561.49,-43.5 808.49,-43.5 "/>
<text text-anchor="start" x="569.49" y="-26.9" font-family="Times Roman,serif" font-size="14.00">_layout</text>
<text text-anchor="start" x="569.49" y="-9.9" font-family="Times Roman,serif" font-size="14.00">scope</text>
</g>
<!-- ApplicationController -->
<g id="node4" class="node"><title>ApplicationController</title>
<polyline fill="none" stroke="black" points="296.574,-337.514 519.574,-337.514 "/>
<path fill="none" stroke="black" d="M519.574,-337.514C525.574,-337.514 531.574,-343.514 531.574,-349.514"/>
<polyline fill="none" stroke="black" points="531.574,-349.514 531.574,-561.514 "/>
<path fill="none" stroke="black" d="M531.574,-561.514C531.574,-567.514 525.574,-573.514 519.574,-573.514"/>
<polyline fill="none" stroke="black" points="519.574,-573.514 296.574,-573.514 "/>
<path fill="none" stroke="black" d="M296.574,-573.514C290.574,-573.514 284.574,-567.514 284.574,-561.514"/>
<polyline fill="none" stroke="black" points="284.574,-561.514 284.574,-349.514 "/>
<path fill="none" stroke="black" d="M284.574,-349.514C284.574,-343.514 290.574,-337.514 296.574,-337.514"/>
<text text-anchor="middle" x="408.074" y="-556.914" font-family="Times Roman,serif" font-size="14.00">ApplicationController</text>
<polyline fill="none" stroke="black" points="284.574,-548.514 531.574,-548.514 "/>
<text text-anchor="start" x="292.574" y="-531.914" font-family="Times Roman,serif" font-size="14.00">_one_time_conditions_valid_134?</text>
<text text-anchor="start" x="292.574" y="-514.914" font-family="Times Roman,serif" font-size="14.00">_one_time_conditions_valid_136?</text>
<text text-anchor="start" x="292.574" y="-497.914" font-family="Times Roman,serif" font-size="14.00">_one_time_conditions_valid_138?</text>
<text text-anchor="start" x="292.574" y="-480.914" font-family="Times Roman,serif" font-size="14.00">index</text>
<text text-anchor="start" x="292.574" y="-463.914" font-family="Times Roman,serif" font-size="14.00">options</text>
<polyline fill="none" stroke="black" points="284.574,-455.514 531.574,-455.514 "/>
<text text-anchor="start" x="292.574" y="-438.914" font-family="Times Roman,serif" font-size="14.00">cors_set_access_control_headers</text>
<text text-anchor="start" x="292.574" y="-421.914" font-family="Times Roman,serif" font-size="14.00">default_url_options</text>
<text text-anchor="start" x="292.574" y="-404.914" font-family="Times Roman,serif" font-size="14.00">require_moderator</text>
<text text-anchor="start" x="292.574" y="-387.914" font-family="Times Roman,serif" font-size="14.00">rescue_action</text>
<text text-anchor="start" x="292.574" y="-370.914" font-family="Times Roman,serif" font-size="14.00">set_locale</text>
<polyline fill="none" stroke="black" points="284.574,-362.514 531.574,-362.514 "/>
<text text-anchor="start" x="292.574" y="-345.914" font-family="Times Roman,serif" font-size="14.00">_layout</text>
</g>
<!-- ApplicationController&#45;&gt;UsersController -->
<g id="edge2" class="edge"><title>ApplicationController&#45;&gt;UsersController</title>
<path fill="none" stroke="black" d="M284.559,-446.718C251,-444.328 216.083,-441.842 187.545,-439.809"/>
</g>
<!-- ApplicationController&#45;&gt;BgeigieImportsController -->
<g id="edge4" class="edge"><title>ApplicationController&#45;&gt;BgeigieImportsController</title>
<path fill="none" stroke="black" d="M516.327,-337.255C531.117,-321.097 546.39,-304.412 561.427,-287.986"/>
</g>
<!-- MeasurementsController -->
<g id="node5" class="node"><title>MeasurementsController</title>
<polyline fill="none" stroke="black" points="281.203,-637.336 504.203,-637.336 "/>
<path fill="none" stroke="black" d="M504.203,-637.336C510.203,-637.336 516.203,-643.336 516.203,-649.336"/>
<polyline fill="none" stroke="black" points="516.203,-649.336 516.203,-843.336 "/>
<path fill="none" stroke="black" d="M516.203,-843.336C516.203,-849.336 510.203,-855.336 504.203,-855.336"/>
<polyline fill="none" stroke="black" points="504.203,-855.336 281.203,-855.336 "/>
<path fill="none" stroke="black" d="M281.203,-855.336C275.203,-855.336 269.203,-849.336 269.203,-843.336"/>
<polyline fill="none" stroke="black" points="269.203,-843.336 269.203,-649.336 "/>
<path fill="none" stroke="black" d="M269.203,-649.336C269.203,-643.336 275.203,-637.336 281.203,-637.336"/>
<text text-anchor="middle" x="392.703" y="-838.736" font-family="Times Roman,serif" font-size="14.00">MeasurementsController</text>
<polyline fill="none" stroke="black" points="269.203,-830.336 516.203,-830.336 "/>
<text text-anchor="start" x="277.203" y="-813.736" font-family="Times Roman,serif" font-size="14.00">_one_time_conditions_valid_262?</text>
<text text-anchor="start" x="277.203" y="-796.736" font-family="Times Roman,serif" font-size="14.00">count</text>
<text text-anchor="start" x="277.203" y="-779.736" font-family="Times Roman,serif" font-size="14.00">create</text>
<text text-anchor="start" x="277.203" y="-762.736" font-family="Times Roman,serif" font-size="14.00">destroy</text>
<text text-anchor="start" x="277.203" y="-745.736" font-family="Times Roman,serif" font-size="14.00">index</text>
<text text-anchor="start" x="277.203" y="-728.736" font-family="Times Roman,serif" font-size="14.00">new</text>
<text text-anchor="start" x="277.203" y="-711.736" font-family="Times Roman,serif" font-size="14.00">show</text>
<text text-anchor="start" x="277.203" y="-694.736" font-family="Times Roman,serif" font-size="14.00">update</text>
<polyline fill="none" stroke="black" points="269.203,-686.336 516.203,-686.336 "/>
<polyline fill="none" stroke="black" points="269.203,-662.336 516.203,-662.336 "/>
<text text-anchor="start" x="277.203" y="-645.736" font-family="Times Roman,serif" font-size="14.00">_layout</text>
</g>
<!-- ApplicationController&#45;&gt;MeasurementsController -->
<g id="edge6" class="edge"><title>ApplicationController&#45;&gt;MeasurementsController</title>
<path fill="none" stroke="black" d="M401.822,-573.803C400.717,-594.718 399.57,-616.409 398.479,-637.062"/>
</g>
<!-- DashboardsController -->
<g id="node6" class="node"><title>DashboardsController</title>
<polyline fill="none" stroke="black" points="607.51,-676.787 750.51,-676.787 "/>
<path fill="none" stroke="black" d="M750.51,-676.787C756.51,-676.787 762.51,-682.787 762.51,-688.787"/>
<polyline fill="none" stroke="black" points="762.51,-688.787 762.51,-797.787 "/>
<path fill="none" stroke="black" d="M762.51,-797.787C762.51,-803.787 756.51,-809.787 750.51,-809.787"/>
<polyline fill="none" stroke="black" points="750.51,-809.787 607.51,-809.787 "/>
<path fill="none" stroke="black" d="M607.51,-809.787C601.51,-809.787 595.51,-803.787 595.51,-797.787"/>
<polyline fill="none" stroke="black" points="595.51,-797.787 595.51,-688.787 "/>
<path fill="none" stroke="black" d="M595.51,-688.787C595.51,-682.787 601.51,-676.787 607.51,-676.787"/>
<text text-anchor="middle" x="679.01" y="-793.187" font-family="Times Roman,serif" font-size="14.00">DashboardsController</text>
<polyline fill="none" stroke="black" points="595.51,-784.787 762.51,-784.787 "/>
<text text-anchor="start" x="603.51" y="-768.187" font-family="Times Roman,serif" font-size="14.00">index</text>
<text text-anchor="start" x="603.51" y="-751.187" font-family="Times Roman,serif" font-size="14.00">new</text>
<text text-anchor="start" x="603.51" y="-734.187" font-family="Times Roman,serif" font-size="14.00">show</text>
<polyline fill="none" stroke="black" points="595.51,-725.787 762.51,-725.787 "/>
<polyline fill="none" stroke="black" points="595.51,-701.787 762.51,-701.787 "/>
<text text-anchor="start" x="603.51" y="-685.187" font-family="Times Roman,serif" font-size="14.00">_layout</text>
</g>
<!-- ApplicationController&#45;&gt;DashboardsController -->
<g id="edge8" class="edge"><title>ApplicationController&#45;&gt;DashboardsController</title>
<path fill="none" stroke="black" d="M519.447,-573.808C552.432,-608.844 587.387,-645.971 616.146,-676.516"/>
</g>
<!-- BgeigieLogsController -->
<g id="node7" class="node"><title>BgeigieLogsController</title>
<polyline fill="none" stroke="black" points="45.0997,-684.958 188.1,-684.958 "/>
<path fill="none" stroke="black" d="M188.1,-684.958C194.1,-684.958 200.1,-690.958 200.1,-696.958"/>
<polyline fill="none" stroke="black" points="200.1,-696.958 200.1,-771.958 "/>
<path fill="none" stroke="black" d="M200.1,-771.958C200.1,-777.958 194.1,-783.958 188.1,-783.958"/>
<polyline fill="none" stroke="black" points="188.1,-783.958 45.0997,-783.958 "/>
<path fill="none" stroke="black" d="M45.0997,-783.958C39.0997,-783.958 33.0997,-777.958 33.0997,-771.958"/>
<polyline fill="none" stroke="black" points="33.0997,-771.958 33.0997,-696.958 "/>
<path fill="none" stroke="black" d="M33.0997,-696.958C33.0997,-690.958 39.0997,-684.958 45.0997,-684.958"/>
<text text-anchor="middle" x="116.6" y="-767.358" font-family="Times Roman,serif" font-size="14.00">BgeigieLogsController</text>
<polyline fill="none" stroke="black" points="33.0997,-758.958 200.1,-758.958 "/>
<text text-anchor="start" x="41.0997" y="-742.358" font-family="Times Roman,serif" font-size="14.00">index</text>
<polyline fill="none" stroke="black" points="33.0997,-733.958 200.1,-733.958 "/>
<polyline fill="none" stroke="black" points="33.0997,-709.958 200.1,-709.958 "/>
<text text-anchor="start" x="41.0997" y="-693.358" font-family="Times Roman,serif" font-size="14.00">_layout</text>
</g>
<!-- ApplicationController&#45;&gt;BgeigieLogsController -->
<g id="edge10" class="edge"><title>ApplicationController&#45;&gt;BgeigieLogsController</title>
<path fill="none" stroke="black" d="M284.463,-573.812C243.811,-612.716 200.808,-653.87 168.505,-684.785"/>
</g>
<!-- DevicesController -->
<g id="node8" class="node"><title>DevicesController</title>
<polyline fill="none" stroke="black" points="13,-62.6226 236,-62.6226 "/>
<path fill="none" stroke="black" d="M236,-62.6226C242,-62.6226 248,-68.6226 248,-74.6226"/>
<polyline fill="none" stroke="black" points="248,-74.6226 248,-217.623 "/>
<path fill="none" stroke="black" d="M248,-217.623C248,-223.623 242,-229.623 236,-229.623"/>
<polyline fill="none" stroke="black" points="236,-229.623 13,-229.623 "/>
<path fill="none" stroke="black" d="M13,-229.623C7,-229.623 1,-223.623 1,-217.623"/>
<polyline fill="none" stroke="black" points="1,-217.623 1,-74.6226 "/>
<path fill="none" stroke="black" d="M1,-74.6226C1,-68.6226 7,-62.6226 13,-62.6226"/>
<text text-anchor="middle" x="124.5" y="-213.023" font-family="Times Roman,serif" font-size="14.00">DevicesController</text>
<polyline fill="none" stroke="black" points="1,-204.623 248,-204.623 "/>
<text text-anchor="start" x="9" y="-188.023" font-family="Times Roman,serif" font-size="14.00">_one_time_conditions_valid_288?</text>
<text text-anchor="start" x="9" y="-171.023" font-family="Times Roman,serif" font-size="14.00">create</text>
<text text-anchor="start" x="9" y="-154.023" font-family="Times Roman,serif" font-size="14.00">index</text>
<text text-anchor="start" x="9" y="-137.023" font-family="Times Roman,serif" font-size="14.00">new</text>
<text text-anchor="start" x="9" y="-120.023" font-family="Times Roman,serif" font-size="14.00">show</text>
<polyline fill="none" stroke="black" points="1,-111.623 248,-111.623 "/>
<polyline fill="none" stroke="black" points="1,-87.6226 248,-87.6226 "/>
<text text-anchor="start" x="9" y="-71.0226" font-family="Times Roman,serif" font-size="14.00">_layout</text>
</g>
<!-- ApplicationController&#45;&gt;DevicesController -->
<g id="edge12" class="edge"><title>ApplicationController&#45;&gt;DevicesController</title>
<path fill="none" stroke="black" d="M299.653,-337.222C266.818,-301.398 231.453,-262.813 201.156,-229.758"/>
</g>
<!-- HomeController -->
<g id="node9" class="node"><title>HomeController</title>
<polyline fill="none" stroke="black" points="356.023,-107.605 457.023,-107.605 "/>
<path fill="none" stroke="black" d="M457.023,-107.605C463.023,-107.605 469.023,-113.605 469.023,-119.605"/>
<polyline fill="none" stroke="black" points="469.023,-119.605 469.023,-193.605 "/>
<path fill="none" stroke="black" d="M469.023,-193.605C469.023,-199.605 463.023,-205.605 457.023,-205.605"/>
<polyline fill="none" stroke="black" points="457.023,-205.605 356.023,-205.605 "/>
<path fill="none" stroke="black" d="M356.023,-205.605C350.023,-205.605 344.023,-199.605 344.023,-193.605"/>
<polyline fill="none" stroke="black" points="344.023,-193.605 344.023,-119.605 "/>
<path fill="none" stroke="black" d="M344.023,-119.605C344.023,-113.605 350.023,-107.605 356.023,-107.605"/>
<text text-anchor="middle" x="406.523" y="-189.005" font-family="Times Roman,serif" font-size="14.00">HomeController</text>
<polyline fill="none" stroke="black" points="344.023,-180.605 469.023,-180.605 "/>
<polyline fill="none" stroke="black" points="344.023,-156.605 469.023,-156.605 "/>
<polyline fill="none" stroke="black" points="344.023,-132.605 469.023,-132.605 "/>
<text text-anchor="start" x="352.023" y="-116.005" font-family="Times Roman,serif" font-size="14.00">_layout</text>
</g>
<!-- ApplicationController&#45;&gt;HomeController -->
<g id="edge14" class="edge"><title>ApplicationController&#45;&gt;HomeController</title>
<path fill="none" stroke="black" d="M407.461,-337.377C407.223,-291.523 406.964,-241.55 406.778,-205.791"/>
</g>
<!-- ProfilesController -->
<g id="node10" class="node"><title>ProfilesController</title>
<polyline fill="none" stroke="black" points="630.876,-400.568 742.876,-400.568 "/>
<path fill="none" stroke="black" d="M742.876,-400.568C748.876,-400.568 754.876,-406.568 754.876,-412.568"/>
<polyline fill="none" stroke="black" points="754.876,-412.568 754.876,-487.568 "/>
<path fill="none" stroke="black" d="M754.876,-487.568C754.876,-493.568 748.876,-499.568 742.876,-499.568"/>
<polyline fill="none" stroke="black" points="742.876,-499.568 630.876,-499.568 "/>
<path fill="none" stroke="black" d="M630.876,-499.568C624.876,-499.568 618.876,-493.568 618.876,-487.568"/>
<polyline fill="none" stroke="black" points="618.876,-487.568 618.876,-412.568 "/>
<path fill="none" stroke="black" d="M618.876,-412.568C618.876,-406.568 624.876,-400.568 630.876,-400.568"/>
<text text-anchor="middle" x="686.876" y="-482.968" font-family="Times Roman,serif" font-size="14.00">ProfilesController</text>
<polyline fill="none" stroke="black" points="618.876,-474.568 754.876,-474.568 "/>
<text text-anchor="start" x="626.876" y="-457.968" font-family="Times Roman,serif" font-size="14.00">update</text>
<polyline fill="none" stroke="black" points="618.876,-449.568 754.876,-449.568 "/>
<polyline fill="none" stroke="black" points="618.876,-425.568 754.876,-425.568 "/>
<text text-anchor="start" x="626.876" y="-408.968" font-family="Times Roman,serif" font-size="14.00">_layout</text>
</g>
<!-- ApplicationController&#45;&gt;ProfilesController -->
<g id="edge16" class="edge"><title>ApplicationController&#45;&gt;ProfilesController</title>
<path fill="none" stroke="black" d="M531.578,-453.102C561.437,-452.519 592.281,-451.916 618.536,-451.403"/>
</g>
</g>
</svg>
