<?xml version="1.0" encoding="UTF-8" standalone="no"?>
<!DOCTYPE svg PUBLIC "-//W3C//DTD SVG 1.1//EN"
 "http://www.w3.org/Graphics/SVG/1.1/DTD/svg11.dtd">
<!-- Generated by graphviz version 2.26.3 (20100126.1600)
 -->
<!-- Title: models_diagram Pages: 1 -->
<svg width="1250pt" height="312pt"
 viewBox="0.00 0.00 1250.00 312.00" xmlns="http://www.w3.org/2000/svg" xmlns:xlink="http://www.w3.org/1999/xlink">
<g id="graph1" class="graph" transform="scale(1 1) rotate(0) translate(4 308)">
<title>models_diagram</title>
<polygon fill="white" stroke="white" points="-4,5 -4,-308 1247,-308 1247,5 -4,5"/>
<!-- _diagram_info -->
<g id="node1" class="node"><title>_diagram_info</title>
<text text-anchor="start" x="270" y="-288.3" font-family="Times Roman,serif" font-size="13.00">Models diagram</text>
<text text-anchor="start" x="270" y="-272.3" font-family="Times Roman,serif" font-size="13.00">Date: Oct 07 2014 &#45; 06:21</text>
<text text-anchor="start" x="270" y="-256.3" font-family="Times Roman,serif" font-size="13.00">Migration version: 20140718095222</text>
<text text-anchor="start" x="270" y="-240.3" font-family="Times Roman,serif" font-size="13.00">Generated by RailRoady 1.1.2</text>
<text text-anchor="start" x="270" y="-224.3" font-family="Times Roman,serif" font-size="13.00">http://railroady.prestonlee.com</text>
</g>
<!-- MeasurementImport -->
<g id="node2" class="node"><title>MeasurementImport</title>
<ellipse fill="none" stroke="black" cx="351" cy="-162" rx="109.097" ry="18"/>
<text text-anchor="middle" x="351" y="-157.9" font-family="Times Roman,serif" font-size="14.00">MeasurementImport</text>
</g>
<!-- BgeigieImport -->
<g id="node7" class="node"><title>BgeigieImport</title>
<ellipse fill="none" stroke="black" cx="548" cy="-90" rx="78.0216" ry="18"/>
<text text-anchor="middle" x="548" y="-85.9" font-family="Times Roman,serif" font-size="14.00">BgeigieImport</text>
</g>
<!-- MeasurementImport&#45;&gt;BgeigieImport -->
<g id="edge24" class="edge"><title>MeasurementImport&#45;&gt;BgeigieImport</title>
<path fill="none" stroke="black" d="M396.196,-145.482C429.252,-133.4 473.77,-117.13 506.043,-105.334"/>
</g>
<!-- DriveImport -->
<g id="node10" class="node"><title>DriveImport</title>
<ellipse fill="none" stroke="black" cx="345" cy="-90" rx="68.9883" ry="18"/>
<text text-anchor="middle" x="345" y="-85.9" font-family="Times Roman,serif" font-size="14.00">DriveImport</text>
</g>
<!-- MeasurementImport&#45;&gt;DriveImport -->
<g id="edge32" class="edge"><title>MeasurementImport&#45;&gt;DriveImport</title>
<path fill="none" stroke="black" d="M349.486,-143.831C348.583,-133 347.441,-119.288 346.534,-108.413"/>
</g>
<!-- MeasurementImportLog -->
<g id="node12" class="node"><title>MeasurementImportLog</title>
<ellipse fill="none" stroke="black" cx="126" cy="-90" rx="125.969" ry="18"/>
<text text-anchor="middle" x="126" y="-85.9" font-family="Times Roman,serif" font-size="14.00">MeasurementImportLog</text>
</g>
<!-- MeasurementImport&#45;&gt;MeasurementImportLog -->
<g id="edge2" class="edge"><title>MeasurementImport&#45;&gt;MeasurementImportLog</title>
<path fill="none" stroke="#c2f58a" d="M292.872,-143.399C260.57,-133.062 220.395,-120.206 187.559,-109.699"/>
<ellipse fill="none" stroke="#c2f58a" cx="296.976" cy="-144.712" rx="4.00001" ry="4.00001"/>
<polygon fill="#c2f58a" stroke="#c2f58a" points="187.145,-109.567 178.993,-102.233 182.383,-108.043 177.621,-106.519 177.621,-106.519 177.621,-106.519 182.383,-108.043 176.25,-110.805 187.145,-109.567 187.145,-109.567"/>
</g>
<!-- Admin -->
<g id="node3" class="node"><title>Admin</title>
<ellipse fill="none" stroke="black" cx="183" cy="-162" rx="41.1906" ry="18"/>
<text text-anchor="middle" x="183" y="-157.9" font-family="Times Roman,serif" font-size="14.00">Admin</text>
</g>
<!-- Ability -->
<g id="node4" class="node"><title>Ability</title>
<polygon fill="none" stroke="black" points="990,-180 930,-180 930,-144 990,-144 990,-180"/>
<text text-anchor="middle" x="960" y="-157.9" font-family="Times Roman,serif" font-size="14.00">Ability</text>
</g>
<!-- Device -->
<g id="node5" class="node"><title>Device</title>
<ellipse fill="none" stroke="black" cx="827" cy="-162" rx="43.7776" ry="18"/>
<text text-anchor="middle" x="827" y="-157.9" font-family="Times Roman,serif" font-size="14.00">Device</text>
</g>
<!-- Measurement -->
<g id="node11" class="node"><title>Measurement</title>
<ellipse fill="none" stroke="black" cx="797" cy="-90" rx="77.1319" ry="18"/>
<text text-anchor="middle" x="797" y="-85.9" font-family="Times Roman,serif" font-size="14.00">Measurement</text>
</g>
<!-- Device&#45;&gt;Measurement -->
<g id="edge10" class="edge"><title>Device&#45;&gt;Measurement</title>
<path fill="none" stroke="#d5ca76" d="M816.421,-136.61C813.847,-130.434 811.083,-123.8 808.471,-117.529"/>
<ellipse fill="none" stroke="#d5ca76" cx="818.046" cy="-140.51" rx="4.00001" ry="4.00001"/>
<polygon fill="#d5ca76" stroke="#d5ca76" points="808.385,-117.324 808.693,-106.362 806.462,-112.709 804.539,-108.093 804.539,-108.093 804.539,-108.093 806.462,-112.709 800.385,-109.824 808.385,-117.324 808.385,-117.324"/>
</g>
<!-- User -->
<g id="node6" class="node"><title>User</title>
<ellipse fill="none" stroke="black" cx="694" cy="-162" rx="32.8565" ry="18"/>
<text text-anchor="middle" x="694" y="-157.9" font-family="Times Roman,serif" font-size="14.00">User</text>
</g>
<!-- User&#45;&gt;BgeigieImport -->
<g id="edge14" class="edge"><title>User&#45;&gt;BgeigieImport</title>
<path fill="none" stroke="#a28669" d="M661.784,-146.113C640.742,-135.736 613.042,-122.076 590.242,-110.832"/>
<ellipse fill="none" stroke="#a28669" cx="665.646" cy="-148.017" rx="4.00002" ry="4.00002"/>
<polygon fill="#a28669" stroke="#a28669" points="590.096,-110.759 583.117,-102.301 585.611,-108.548 581.127,-106.337 581.127,-106.337 581.127,-106.337 585.611,-108.548 579.136,-110.372 590.096,-110.759 590.096,-110.759"/>
</g>
<!-- Map -->
<g id="node8" class="node"><title>Map</title>
<ellipse fill="none" stroke="black" cx="797" cy="-18" rx="30.7734" ry="18"/>
<text text-anchor="middle" x="797" y="-13.9" font-family="Times Roman,serif" font-size="14.00">Map</text>
</g>
<!-- User&#45;&gt;Map -->
<g id="edge18" class="edge"><title>User&#45;&gt;Map</title>
<path fill="none" stroke="#806883" d="M693.528,-135.799C694.395,-116.618 698.203,-90.7692 711,-72 723.15,-54.1788 743.329,-41.0581 761.088,-32.2153"/>
<ellipse fill="none" stroke="#806883" cx="693.422" cy="-139.834" rx="4" ry="4"/>
<polygon fill="#806883" stroke="#806883" points="761.583,-31.9832 772.547,-31.8149 766.11,-29.8616 770.638,-27.74 770.638,-27.74 770.638,-27.74 766.11,-29.8616 768.729,-23.6652 761.583,-31.9832 761.583,-31.9832"/>
</g>
<!-- User&#45;&gt;Measurement -->
<g id="edge16" class="edge"><title>User&#45;&gt;Measurement</title>
<path fill="none" stroke="#adc68c" d="M721.322,-142.901C734.444,-133.729 750.274,-122.663 764.058,-113.027"/>
<ellipse fill="none" stroke="#adc68c" cx="717.628" cy="-145.483" rx="4.00002" ry="4.00002"/>
<polygon fill="#adc68c" stroke="#adc68c" points="764.137,-112.972 774.911,-110.931 768.235,-110.108 772.333,-107.243 772.333,-107.243 772.333,-107.243 768.235,-110.108 769.755,-103.555 764.137,-112.972 764.137,-112.972"/>
</g>
<!-- BgeigieLog -->
<g id="node13" class="node"><title>BgeigieLog</title>
<ellipse fill="none" stroke="black" cx="580" cy="-18" rx="63.9292" ry="18"/>
<text text-anchor="middle" x="580" y="-13.9" font-family="Times Roman,serif" font-size="14.00">BgeigieLog</text>
</g>
<!-- BgeigieImport&#45;&gt;BgeigieLog -->
<g id="edge22" class="edge"><title>BgeigieImport&#45;&gt;BgeigieLog</title>
<path fill="none" stroke="#77153f" d="M559.444,-64.2502C562.181,-58.0922 565.112,-51.4977 567.878,-45.2735"/>
<ellipse fill="none" stroke="#77153f" cx="557.7" cy="-68.1761" rx="4.00002" ry="4.00002"/>
<polygon fill="#77153f" stroke="#77153f" points="567.977,-45.0515 576.151,-37.7411 570.008,-40.4825 572.038,-35.9134 572.038,-35.9134 572.038,-35.9134 570.008,-40.4825 567.926,-34.0858 567.977,-45.0515 567.977,-45.0515"/>
</g>
<!-- DriveLog -->
<g id="node9" class="node"><title>DriveLog</title>
<ellipse fill="none" stroke="black" cx="410" cy="-18" rx="54.8957" ry="18"/>
<text text-anchor="middle" x="410" y="-13.9" font-family="Times Roman,serif" font-size="14.00">DriveLog</text>
</g>
<!-- DriveImport&#45;&gt;DriveLog -->
<g id="edge30" class="edge"><title>DriveImport&#45;&gt;DriveLog</title>
<path fill="none" stroke="#afd717" d="M366.529,-66.1529C373.203,-58.7601 380.576,-50.5927 387.325,-43.1164"/>
<ellipse fill="none" stroke="#afd717" cx="363.748" cy="-69.2332" rx="4.00002" ry="4.00002"/>
<polygon fill="#afd717" stroke="#afd717" points="387.641,-42.7673 397.682,-38.3601 390.991,-39.0559 394.342,-35.3446 394.342,-35.3446 394.342,-35.3446 390.991,-39.0559 391.001,-32.3291 387.641,-42.7673 387.641,-42.7673"/>
</g>
<!-- Measurement&#45;&gt;Map -->
<g id="edge34" class="edge"><title>Measurement&#45;&gt;Map</title>
<path fill="none" stroke="#064cd1" d="M797,-61.5726C797,-56.6792 797,-51.5904 797,-46.6901"/>
<polygon fill="#064cd1" stroke="#064cd1" points="797,-61.8314 792.5,-71.8313 797,-66.8314 797,-71.8314 797,-71.8314 797,-71.8314 797,-66.8314 801.5,-71.8314 797,-61.8314 797,-61.8314"/>
<polygon fill="#064cd1" stroke="#064cd1" points="797,-46.4133 801.5,-36.4132 797,-41.4133 797,-36.4133 797,-36.4133 797,-36.4133 797,-41.4133 792.5,-36.4133 797,-46.4133 797,-46.4133"/>
</g>
<!-- BgeigieImport::StateConcerns -->
<g id="node14" class="node"><title>BgeigieImport::StateConcerns</title>
<polygon fill="none" stroke="black" stroke-dasharray="1,5" points="1242,-278 1020,-278 1020,-242 1242,-242 1242,-278"/>
<text text-anchor="middle" x="1131" y="-255.9" font-family="Times Roman,serif" font-size="14.00">BgeigieImport::StateConcerns</text>
</g>
<!-- ActiveRecord::Base -->
<g id="node16" class="node"><title>ActiveRecord::Base</title>
<ellipse fill="none" stroke="black" cx="633" cy="-260" rx="102.843" ry="18"/>
<text text-anchor="middle" x="633" y="-255.9" font-family="Times Roman,serif" font-size="14.00">ActiveRecord::Base</text>
</g>
<!-- ActiveRecord::Base&#45;&gt;MeasurementImport -->
<g id="edge4" class="edge"><title>ActiveRecord::Base&#45;&gt;MeasurementImport</title>
<path fill="none" stroke="black" d="M592.548,-243.354C571.365,-234.83 544.922,-224.488 521,-216 482.039,-202.176 437.482,-188.085 403.761,-177.765"/>
</g>
<!-- ActiveRecord::Base&#45;&gt;Admin -->
<g id="edge6" class="edge"><title>ActiveRecord::Base&#45;&gt;Admin</title>
<path fill="none" stroke="black" d="M596.687,-243.059C575.132,-233.685 547.015,-222.625 521,-216 395.993,-184.168 358.452,-210.03 233,-180 226.54,-178.454 219.758,-176.353 213.348,-174.133"/>
</g>
<!-- ActiveRecord::Base&#45;&gt;Device -->
<g id="edge12" class="edge"><title>ActiveRecord::Base&#45;&gt;Device</title>
<path fill="none" stroke="black" d="M666.792,-242.93C704.354,-223.955 764.312,-193.667 799.243,-176.021"/>
</g>
<!-- ActiveRecord::Base&#45;&gt;User -->
<g id="edge20" class="edge"><title>ActiveRecord::Base&#45;&gt;User</title>
<path fill="none" stroke="black" d="M644.188,-242.025C655.332,-224.122 672.319,-196.831 683.292,-179.203"/>
</g>
<!-- ActiveRecord::Base&#45;&gt;Map -->
<g id="edge26" class="edge"><title>ActiveRecord::Base&#45;&gt;Map</title>
<path fill="none" stroke="black" d="M702.563,-246.67C767.725,-232.636 858.256,-208.626 880,-180 909.045,-141.762 906.234,-114.023 883,-72 870.546,-49.474 844.325,-35.0779 824.091,-26.8652"/>
</g>
<!-- ActiveRecord::Base&#45;&gt;DriveLog -->
<g id="edge28" class="edge"><title>ActiveRecord::Base&#45;&gt;DriveLog</title>
<path fill="none" stroke="black" d="M608.468,-242.497C572.858,-216.229 506.176,-163.717 461,-108 442.563,-85.2615 426.929,-54.9921 418.002,-36.0003"/>
</g>
<!-- ActiveRecord::Base&#45;&gt;Measurement -->
<g id="edge36" class="edge"><title>ActiveRecord::Base&#45;&gt;Measurement</title>
<path fill="none" stroke="black" d="M660.292,-242.353C682.239,-227.368 713.084,-204.45 736,-180 757.041,-157.552 776.017,-127.203 787.028,-108.115"/>
</g>
<!-- ActiveRecord::Base&#45;&gt;MeasurementImportLog -->
<g id="edge38" class="edge"><title>ActiveRecord::Base&#45;&gt;MeasurementImportLog</title>
<path fill="none" stroke="black" d="M597.514,-243.081C575.891,-233.53 547.422,-222.282 521,-216 436.756,-195.97 193.772,-241.685 133,-180 114.632,-161.356 117.249,-128.737 121.29,-108.31"/>
</g>
<!-- ActiveRecord::Base&#45;&gt;BgeigieLog -->
<g id="edge40" class="edge"><title>ActiveRecord::Base&#45;&gt;BgeigieLog</title>
<path fill="none" stroke="black" d="M637.732,-242.001C645.86,-207.446 659.374,-130.09 635,-72 628.735,-57.0694 616.105,-44.1891 604.527,-34.7564"/>
</g>
<!-- Object -->
<g id="node19" class="node"><title>Object</title>
<ellipse fill="none" stroke="black" cx="960" cy="-260" rx="41.8891" ry="18"/>
<text text-anchor="middle" x="960" y="-255.9" font-family="Times Roman,serif" font-size="14.00">Object</text>
</g>
<!-- Object&#45;&gt;Ability -->
<g id="edge8" class="edge"><title>Object&#45;&gt;Ability</title>
<path fill="none" stroke="black" d="M960,-241.567C960,-223.935 960,-197.512 960,-180.019"/>
</g>
</g>
</svg>
