<?xml version="1.0" encoding="UTF-8" standalone="no"?>
<!DOCTYPE svg PUBLIC "-//W3C//DTD SVG 1.1//EN"
 "http://www.w3.org/Graphics/SVG/1.1/DTD/svg11.dtd">
<!-- Generated by graphviz version 2.26.3 (20100126.1600)
 -->
<!-- Title: models_diagram Pages: 1 -->
<svg width="1657pt" height="1378pt"
 viewBox="0.00 0.00 1657.00 1378.00" xmlns="http://www.w3.org/2000/svg" xmlns:xlink="http://www.w3.org/1999/xlink">
<g id="graph1" class="graph" transform="scale(1 1) rotate(0) translate(4 1374)">
<title>models_diagram</title>
<polygon fill="white" stroke="white" points="-4,5 -4,-1374 1654,-1374 1654,5 -4,5"/>
<!-- _diagram_info -->
<g id="node1" class="node"><title>_diagram_info</title>
<text text-anchor="start" x="356" y="-1354.3" font-family="Times Roman,serif" font-size="13.00">Models diagram</text>
<text text-anchor="start" x="356" y="-1338.3" font-family="Times Roman,serif" font-size="13.00">Date: Oct 07 2014 &#45; 06:21</text>
<text text-anchor="start" x="356" y="-1322.3" font-family="Times Roman,serif" font-size="13.00">Migration version: 20140718095222</text>
<text text-anchor="start" x="356" y="-1306.3" font-family="Times Roman,serif" font-size="13.00">Generated by RailRoady 1.1.2</text>
<text text-anchor="start" x="356" y="-1290.3" font-family="Times Roman,serif" font-size="13.00">http://railroady.prestonlee.com</text>
</g>
<!-- MeasurementImport -->
<g id="node2" class="node"><title>MeasurementImport</title>
<polyline fill="none" stroke="black" points="382,-864 582,-864 "/>
<path fill="none" stroke="black" d="M582,-864C588,-864 594,-870 594,-876"/>
<polyline fill="none" stroke="black" points="594,-876 594,-1208 "/>
<path fill="none" stroke="black" d="M594,-1208C594,-1214 588,-1220 582,-1220"/>
<polyline fill="none" stroke="black" points="582,-1220 382,-1220 "/>
<path fill="none" stroke="black" d="M382,-1220C376,-1220 370,-1214 370,-1208"/>
<polyline fill="none" stroke="black" points="370,-1208 370,-876 "/>
<path fill="none" stroke="black" d="M370,-876C370,-870 376,-864 382,-864"/>
<text text-anchor="middle" x="482" y="-1203.4" font-family="Times Roman,serif" font-size="14.00">MeasurementImport</text>
<polyline fill="none" stroke="black" points="370,-1195 594,-1195 "/>
<text text-anchor="start" x="378" y="-1178.4" font-family="Times Roman,serif" font-size="14.00">id :integer</text>
<text text-anchor="start" x="378" y="-1161.4" font-family="Times Roman,serif" font-size="14.00">user_id :integer</text>
<text text-anchor="start" x="378" y="-1144.4" font-family="Times Roman,serif" font-size="14.00">source :string</text>
<text text-anchor="start" x="378" y="-1127.4" font-family="Times Roman,serif" font-size="14.00">md5sum :string</text>
<text text-anchor="start" x="378" y="-1110.4" font-family="Times Roman,serif" font-size="14.00">type :string</text>
<text text-anchor="start" x="378" y="-1093.4" font-family="Times Roman,serif" font-size="14.00">status :string</text>
<text text-anchor="start" x="378" y="-1076.4" font-family="Times Roman,serif" font-size="14.00">measurements_count :integer</text>
<text text-anchor="start" x="378" y="-1059.4" font-family="Times Roman,serif" font-size="14.00">map_id :integer</text>
<text text-anchor="start" x="378" y="-1042.4" font-family="Times Roman,serif" font-size="14.00">status_details :text</text>
<text text-anchor="start" x="378" y="-1025.4" font-family="Times Roman,serif" font-size="14.00">approved :boolean</text>
<text text-anchor="start" x="378" y="-1008.4" font-family="Times Roman,serif" font-size="14.00">created_at :datetime</text>
<text text-anchor="start" x="378" y="-991.4" font-family="Times Roman,serif" font-size="14.00">updated_at :datetime</text>
<text text-anchor="start" x="378" y="-974.4" font-family="Times Roman,serif" font-size="14.00">name :string</text>
<text text-anchor="start" x="378" y="-957.4" font-family="Times Roman,serif" font-size="14.00">description :text</text>
<text text-anchor="start" x="378" y="-940.4" font-family="Times Roman,serif" font-size="14.00">lines_count :integer</text>
<text text-anchor="start" x="378" y="-923.4" font-family="Times Roman,serif" font-size="14.00">credits :text</text>
<text text-anchor="start" x="378" y="-906.4" font-family="Times Roman,serif" font-size="14.00">height :decimal</text>
<text text-anchor="start" x="378" y="-889.4" font-family="Times Roman,serif" font-size="14.00">orientation :string</text>
<text text-anchor="start" x="378" y="-872.4" font-family="Times Roman,serif" font-size="14.00">cities :text</text>
</g>
<!-- BgeigieImport -->
<g id="node7" class="node"><title>BgeigieImport</title>
<polyline fill="none" stroke="black" points="632,-445 832,-445 "/>
<path fill="none" stroke="black" d="M832,-445C838,-445 844,-451 844,-457"/>
<polyline fill="none" stroke="black" points="844,-457 844,-789 "/>
<path fill="none" stroke="black" d="M844,-789C844,-795 838,-801 832,-801"/>
<polyline fill="none" stroke="black" points="832,-801 632,-801 "/>
<path fill="none" stroke="black" d="M632,-801C626,-801 620,-795 620,-789"/>
<polyline fill="none" stroke="black" points="620,-789 620,-457 "/>
<path fill="none" stroke="black" d="M620,-457C620,-451 626,-445 632,-445"/>
<text text-anchor="middle" x="732" y="-784.4" font-family="Times Roman,serif" font-size="14.00">BgeigieImport</text>
<polyline fill="none" stroke="black" points="620,-776 844,-776 "/>
<text text-anchor="start" x="628" y="-759.4" font-family="Times Roman,serif" font-size="14.00">id :integer</text>
<text text-anchor="start" x="628" y="-742.4" font-family="Times Roman,serif" font-size="14.00">user_id :integer</text>
<text text-anchor="start" x="628" y="-725.4" font-family="Times Roman,serif" font-size="14.00">source :string</text>
<text text-anchor="start" x="628" y="-708.4" font-family="Times Roman,serif" font-size="14.00">md5sum :string</text>
<text text-anchor="start" x="628" y="-691.4" font-family="Times Roman,serif" font-size="14.00">type :string</text>
<text text-anchor="start" x="628" y="-674.4" font-family="Times Roman,serif" font-size="14.00">status :string</text>
<text text-anchor="start" x="628" y="-657.4" font-family="Times Roman,serif" font-size="14.00">measurements_count :integer</text>
<text text-anchor="start" x="628" y="-640.4" font-family="Times Roman,serif" font-size="14.00">map_id :integer</text>
<text text-anchor="start" x="628" y="-623.4" font-family="Times Roman,serif" font-size="14.00">status_details :text</text>
<text text-anchor="start" x="628" y="-606.4" font-family="Times Roman,serif" font-size="14.00">approved :boolean</text>
<text text-anchor="start" x="628" y="-589.4" font-family="Times Roman,serif" font-size="14.00">created_at :datetime</text>
<text text-anchor="start" x="628" y="-572.4" font-family="Times Roman,serif" font-size="14.00">updated_at :datetime</text>
<text text-anchor="start" x="628" y="-555.4" font-family="Times Roman,serif" font-size="14.00">name :string</text>
<text text-anchor="start" x="628" y="-538.4" font-family="Times Roman,serif" font-size="14.00">description :text</text>
<text text-anchor="start" x="628" y="-521.4" font-family="Times Roman,serif" font-size="14.00">lines_count :integer</text>
<text text-anchor="start" x="628" y="-504.4" font-family="Times Roman,serif" font-size="14.00">credits :text</text>
<text text-anchor="start" x="628" y="-487.4" font-family="Times Roman,serif" font-size="14.00">height :decimal</text>
<text text-anchor="start" x="628" y="-470.4" font-family="Times Roman,serif" font-size="14.00">orientation :string</text>
<text text-anchor="start" x="628" y="-453.4" font-family="Times Roman,serif" font-size="14.00">cities :text</text>
</g>
<!-- MeasurementImport&#45;&gt;BgeigieImport -->
<g id="edge24" class="edge"><title>MeasurementImport&#45;&gt;BgeigieImport</title>
<path fill="none" stroke="black" d="M588.385,-863.699C600.745,-842.984 613.352,-821.853 625.711,-801.141"/>
</g>
<!-- DriveImport -->
<g id="node10" class="node"><title>DriveImport</title>
<polyline fill="none" stroke="black" points="352,-445 552,-445 "/>
<path fill="none" stroke="black" d="M552,-445C558,-445 564,-451 564,-457"/>
<polyline fill="none" stroke="black" points="564,-457 564,-789 "/>
<path fill="none" stroke="black" d="M564,-789C564,-795 558,-801 552,-801"/>
<polyline fill="none" stroke="black" points="552,-801 352,-801 "/>
<path fill="none" stroke="black" d="M352,-801C346,-801 340,-795 340,-789"/>
<polyline fill="none" stroke="black" points="340,-789 340,-457 "/>
<path fill="none" stroke="black" d="M340,-457C340,-451 346,-445 352,-445"/>
<text text-anchor="middle" x="452" y="-784.4" font-family="Times Roman,serif" font-size="14.00">DriveImport</text>
<polyline fill="none" stroke="black" points="340,-776 564,-776 "/>
<text text-anchor="start" x="348" y="-759.4" font-family="Times Roman,serif" font-size="14.00">id :integer</text>
<text text-anchor="start" x="348" y="-742.4" font-family="Times Roman,serif" font-size="14.00">user_id :integer</text>
<text text-anchor="start" x="348" y="-725.4" font-family="Times Roman,serif" font-size="14.00">source :string</text>
<text text-anchor="start" x="348" y="-708.4" font-family="Times Roman,serif" font-size="14.00">md5sum :string</text>
<text text-anchor="start" x="348" y="-691.4" font-family="Times Roman,serif" font-size="14.00">type :string</text>
<text text-anchor="start" x="348" y="-674.4" font-family="Times Roman,serif" font-size="14.00">status :string</text>
<text text-anchor="start" x="348" y="-657.4" font-family="Times Roman,serif" font-size="14.00">measurements_count :integer</text>
<text text-anchor="start" x="348" y="-640.4" font-family="Times Roman,serif" font-size="14.00">map_id :integer</text>
<text text-anchor="start" x="348" y="-623.4" font-family="Times Roman,serif" font-size="14.00">status_details :text</text>
<text text-anchor="start" x="348" y="-606.4" font-family="Times Roman,serif" font-size="14.00">approved :boolean</text>
<text text-anchor="start" x="348" y="-589.4" font-family="Times Roman,serif" font-size="14.00">created_at :datetime</text>
<text text-anchor="start" x="348" y="-572.4" font-family="Times Roman,serif" font-size="14.00">updated_at :datetime</text>
<text text-anchor="start" x="348" y="-555.4" font-family="Times Roman,serif" font-size="14.00">name :string</text>
<text text-anchor="start" x="348" y="-538.4" font-family="Times Roman,serif" font-size="14.00">description :text</text>
<text text-anchor="start" x="348" y="-521.4" font-family="Times Roman,serif" font-size="14.00">lines_count :integer</text>
<text text-anchor="start" x="348" y="-504.4" font-family="Times Roman,serif" font-size="14.00">credits :text</text>
<text text-anchor="start" x="348" y="-487.4" font-family="Times Roman,serif" font-size="14.00">height :decimal</text>
<text text-anchor="start" x="348" y="-470.4" font-family="Times Roman,serif" font-size="14.00">orientation :string</text>
<text text-anchor="start" x="348" y="-453.4" font-family="Times Roman,serif" font-size="14.00">cities :text</text>
</g>
<!-- MeasurementImport&#45;&gt;DriveImport -->
<g id="edge32" class="edge"><title>MeasurementImport&#45;&gt;DriveImport</title>
<path fill="none" stroke="black" d="M469.234,-863.699C467.751,-842.984 466.238,-821.853 464.755,-801.141"/>
</g>
<!-- MeasurementImportLog -->
<g id="node12" class="node"><title>MeasurementImportLog</title>
<polyline fill="none" stroke="black" points="12,-564 230,-564 "/>
<path fill="none" stroke="black" d="M230,-564C236,-564 242,-570 242,-576"/>
<polyline fill="none" stroke="black" points="242,-576 242,-670 "/>
<path fill="none" stroke="black" d="M242,-670C242,-676 236,-682 230,-682"/>
<polyline fill="none" stroke="black" points="230,-682 12,-682 "/>
<path fill="none" stroke="black" d="M12,-682C6,-682 0,-676 0,-670"/>
<polyline fill="none" stroke="black" points="0,-670 0,-576 "/>
<path fill="none" stroke="black" d="M0,-576C0,-570 6,-564 12,-564"/>
<text text-anchor="middle" x="121" y="-665.4" font-family="Times Roman,serif" font-size="14.00">MeasurementImportLog</text>
<polyline fill="none" stroke="black" points="0,-657 242,-657 "/>
<text text-anchor="start" x="8" y="-640.4" font-family="Times Roman,serif" font-size="14.00">id :integer</text>
<text text-anchor="start" x="8" y="-623.4" font-family="Times Roman,serif" font-size="14.00">measurement_import_id :integer</text>
<text text-anchor="start" x="8" y="-606.4" font-family="Times Roman,serif" font-size="14.00">description :text</text>
<text text-anchor="start" x="8" y="-589.4" font-family="Times Roman,serif" font-size="14.00">created_at :datetime</text>
<text text-anchor="start" x="8" y="-572.4" font-family="Times Roman,serif" font-size="14.00">updated_at :datetime</text>
</g>
<!-- MeasurementImport&#45;&gt;MeasurementImportLog -->
<g id="edge2" class="edge"><title>MeasurementImport&#45;&gt;MeasurementImportLog</title>
<path fill="none" stroke="#3e5ade" d="M376.051,-857.255C371.121,-850.647 366.098,-844.204 361,-838 315.416,-782.523 255.209,-728.629 206.502,-688.676"/>
<ellipse fill="none" stroke="#3e5ade" cx="378.58" cy="-860.694" rx="4.00002" ry="4.00002"/>
<polygon fill="#3e5ade" stroke="#3e5ade" points="206.23,-688.454 201.323,-678.647 202.355,-685.295 198.479,-682.135 198.479,-682.135 198.479,-682.135 202.355,-685.295 195.636,-685.623 206.23,-688.454 206.23,-688.454"/>
</g>
<!-- Admin -->
<g id="node3" class="node"><title>Admin</title>
<polyline fill="none" stroke="black" points="110,-915 340,-915 "/>
<path fill="none" stroke="black" d="M340,-915C346,-915 352,-921 352,-927"/>
<polyline fill="none" stroke="black" points="352,-927 352,-1157 "/>
<path fill="none" stroke="black" d="M352,-1157C352,-1163 346,-1169 340,-1169"/>
<polyline fill="none" stroke="black" points="340,-1169 110,-1169 "/>
<path fill="none" stroke="black" d="M110,-1169C104,-1169 98,-1163 98,-1157"/>
<polyline fill="none" stroke="black" points="98,-1157 98,-927 "/>
<path fill="none" stroke="black" d="M98,-927C98,-921 104,-915 110,-915"/>
<text text-anchor="middle" x="225" y="-1152.4" font-family="Times Roman,serif" font-size="14.00">Admin</text>
<polyline fill="none" stroke="black" points="98,-1144 352,-1144 "/>
<text text-anchor="start" x="106" y="-1127.4" font-family="Times Roman,serif" font-size="14.00">id :integer</text>
<text text-anchor="start" x="106" y="-1110.4" font-family="Times Roman,serif" font-size="14.00">email :string</text>
<text text-anchor="start" x="106" y="-1093.4" font-family="Times Roman,serif" font-size="14.00">encrypted_password :string</text>
<text text-anchor="start" x="106" y="-1076.4" font-family="Times Roman,serif" font-size="14.00">reset_password_token :string</text>
<text text-anchor="start" x="106" y="-1059.4" font-family="Times Roman,serif" font-size="14.00">reset_password_sent_at :datetime</text>
<text text-anchor="start" x="106" y="-1042.4" font-family="Times Roman,serif" font-size="14.00">remember_created_at :datetime</text>
<text text-anchor="start" x="106" y="-1025.4" font-family="Times Roman,serif" font-size="14.00">sign_in_count :integer</text>
<text text-anchor="start" x="106" y="-1008.4" font-family="Times Roman,serif" font-size="14.00">current_sign_in_at :datetime</text>
<text text-anchor="start" x="106" y="-991.4" font-family="Times Roman,serif" font-size="14.00">last_sign_in_at :datetime</text>
<text text-anchor="start" x="106" y="-974.4" font-family="Times Roman,serif" font-size="14.00">current_sign_in_ip :string</text>
<text text-anchor="start" x="106" y="-957.4" font-family="Times Roman,serif" font-size="14.00">last_sign_in_ip :string</text>
<text text-anchor="start" x="106" y="-940.4" font-family="Times Roman,serif" font-size="14.00">created_at :datetime</text>
<text text-anchor="start" x="106" y="-923.4" font-family="Times Roman,serif" font-size="14.00">updated_at :datetime</text>
</g>
<!-- Ability -->
<g id="node4" class="node"><title>Ability</title>
<polygon fill="none" stroke="black" points="1337,-1017 1337,-1067 1397,-1067 1397,-1017 1337,-1017"/>
<text text-anchor="middle" x="1367" y="-1050.4" font-family="Times Roman,serif" font-size="14.00">Ability</text>
<polyline fill="none" stroke="black" points="1337,-1042 1397,-1042 "/>
<text text-anchor="middle" x="1367" y="-1025.4" font-family="Times Roman,serif" font-size="14.00"> </text>
</g>
<!-- Device -->
<g id="node5" class="node"><title>Device</title>
<polyline fill="none" stroke="black" points="1069,-966 1269,-966 "/>
<path fill="none" stroke="black" d="M1269,-966C1275,-966 1281,-972 1281,-978"/>
<polyline fill="none" stroke="black" points="1281,-978 1281,-1106 "/>
<path fill="none" stroke="black" d="M1281,-1106C1281,-1112 1275,-1118 1269,-1118"/>
<polyline fill="none" stroke="black" points="1269,-1118 1069,-1118 "/>
<path fill="none" stroke="black" d="M1069,-1118C1063,-1118 1057,-1112 1057,-1106"/>
<polyline fill="none" stroke="black" points="1057,-1106 1057,-978 "/>
<path fill="none" stroke="black" d="M1057,-978C1057,-972 1063,-966 1069,-966"/>
<text text-anchor="middle" x="1169" y="-1101.4" font-family="Times Roman,serif" font-size="14.00">Device</text>
<polyline fill="none" stroke="black" points="1057,-1093 1281,-1093 "/>
<text text-anchor="start" x="1065" y="-1076.4" font-family="Times Roman,serif" font-size="14.00">id :integer</text>
<text text-anchor="start" x="1065" y="-1059.4" font-family="Times Roman,serif" font-size="14.00">manufacturer :string</text>
<text text-anchor="start" x="1065" y="-1042.4" font-family="Times Roman,serif" font-size="14.00">model :string</text>
<text text-anchor="start" x="1065" y="-1025.4" font-family="Times Roman,serif" font-size="14.00">sensor :string</text>
<text text-anchor="start" x="1065" y="-1008.4" font-family="Times Roman,serif" font-size="14.00">created_at :datetime</text>
<text text-anchor="start" x="1065" y="-991.4" font-family="Times Roman,serif" font-size="14.00">updated_at :datetime</text>
<text text-anchor="start" x="1065" y="-974.4" font-family="Times Roman,serif" font-size="14.00">measurements_count :integer</text>
</g>
<!-- Measurement -->
<g id="node11" class="node"><title>Measurement</title>
<polyline fill="none" stroke="black" points="950,-445 1168,-445 "/>
<path fill="none" stroke="black" d="M1168,-445C1174,-445 1180,-451 1180,-457"/>
<polyline fill="none" stroke="black" points="1180,-457 1180,-789 "/>
<path fill="none" stroke="black" d="M1180,-789C1180,-795 1174,-801 1168,-801"/>
<polyline fill="none" stroke="black" points="1168,-801 950,-801 "/>
<path fill="none" stroke="black" d="M950,-801C944,-801 938,-795 938,-789"/>
<polyline fill="none" stroke="black" points="938,-789 938,-457 "/>
<path fill="none" stroke="black" d="M938,-457C938,-451 944,-445 950,-445"/>
<text text-anchor="middle" x="1059" y="-784.4" font-family="Times Roman,serif" font-size="14.00">Measurement</text>
<polyline fill="none" stroke="black" points="938,-776 1180,-776 "/>
<text text-anchor="start" x="946" y="-759.4" font-family="Times Roman,serif" font-size="14.00">id :integer</text>
<text text-anchor="start" x="946" y="-742.4" font-family="Times Roman,serif" font-size="14.00">user_id :integer</text>
<text text-anchor="start" x="946" y="-725.4" font-family="Times Roman,serif" font-size="14.00">value :float</text>
<text text-anchor="start" x="946" y="-708.4" font-family="Times Roman,serif" font-size="14.00">created_at :datetime</text>
<text text-anchor="start" x="946" y="-691.4" font-family="Times Roman,serif" font-size="14.00">updated_at :datetime</text>
<text text-anchor="start" x="946" y="-674.4" font-family="Times Roman,serif" font-size="14.00">unit :string</text>
<text text-anchor="start" x="946" y="-657.4" font-family="Times Roman,serif" font-size="14.00">location :spatial</text>
<text text-anchor="start" x="946" y="-640.4" font-family="Times Roman,serif" font-size="14.00">location_name :string</text>
<text text-anchor="start" x="946" y="-623.4" font-family="Times Roman,serif" font-size="14.00">device_id :integer</text>
<text text-anchor="start" x="946" y="-606.4" font-family="Times Roman,serif" font-size="14.00">original_id :integer</text>
<text text-anchor="start" x="946" y="-589.4" font-family="Times Roman,serif" font-size="14.00">expired_at :datetime</text>
<text text-anchor="start" x="946" y="-572.4" font-family="Times Roman,serif" font-size="14.00">replaced_by :integer</text>
<text text-anchor="start" x="946" y="-555.4" font-family="Times Roman,serif" font-size="14.00">updated_by :integer</text>
<text text-anchor="start" x="946" y="-538.4" font-family="Times Roman,serif" font-size="14.00">measurement_import_id :integer</text>
<text text-anchor="start" x="946" y="-521.4" font-family="Times Roman,serif" font-size="14.00">md5sum :string</text>
<text text-anchor="start" x="946" y="-504.4" font-family="Times Roman,serif" font-size="14.00">captured_at :datetime</text>
<text text-anchor="start" x="946" y="-487.4" font-family="Times Roman,serif" font-size="14.00">height :integer</text>
<text text-anchor="start" x="946" y="-470.4" font-family="Times Roman,serif" font-size="14.00">surface :string</text>
<text text-anchor="start" x="946" y="-453.4" font-family="Times Roman,serif" font-size="14.00">radiation :string</text>
</g>
<!-- Device&#45;&gt;Measurement -->
<g id="edge10" class="edge"><title>Device&#45;&gt;Measurement</title>
<path fill="none" stroke="#e145b9" d="M1146.86,-957.657C1135.75,-915.333 1121.81,-862.252 1108.33,-810.917"/>
<ellipse fill="none" stroke="#e145b9" cx="1147.94" cy="-961.767" rx="4.00001" ry="4.00001"/>
<polygon fill="#e145b9" stroke="#e145b9" points="1108.27,-810.689 1110.09,-799.874 1107,-805.853 1105.73,-801.017 1105.73,-801.017 1105.73,-801.017 1107,-805.853 1101.38,-802.16 1108.27,-810.689 1108.27,-810.689"/>
</g>
<!-- User -->
<g id="node6" class="node"><title>User</title>
<polyline fill="none" stroke="black" points="759,-838.5 989,-838.5 "/>
<path fill="none" stroke="black" d="M989,-838.5C995,-838.5 1001,-844.5 1001,-850.5"/>
<polyline fill="none" stroke="black" points="1001,-850.5 1001,-1233.5 "/>
<path fill="none" stroke="black" d="M1001,-1233.5C1001,-1239.5 995,-1245.5 989,-1245.5"/>
<polyline fill="none" stroke="black" points="989,-1245.5 759,-1245.5 "/>
<path fill="none" stroke="black" d="M759,-1245.5C753,-1245.5 747,-1239.5 747,-1233.5"/>
<polyline fill="none" stroke="black" points="747,-1233.5 747,-850.5 "/>
<path fill="none" stroke="black" d="M747,-850.5C747,-844.5 753,-838.5 759,-838.5"/>
<text text-anchor="middle" x="874" y="-1228.9" font-family="Times Roman,serif" font-size="14.00">User</text>
<polyline fill="none" stroke="black" points="747,-1220.5 1001,-1220.5 "/>
<text text-anchor="start" x="755" y="-1203.9" font-family="Times Roman,serif" font-size="14.00">id :integer</text>
<text text-anchor="start" x="755" y="-1186.9" font-family="Times Roman,serif" font-size="14.00">email :string</text>
<text text-anchor="start" x="755" y="-1169.9" font-family="Times Roman,serif" font-size="14.00">encrypted_password :string</text>
<text text-anchor="start" x="755" y="-1152.9" font-family="Times Roman,serif" font-size="14.00">reset_password_token :string</text>
<text text-anchor="start" x="755" y="-1135.9" font-family="Times Roman,serif" font-size="14.00">reset_password_sent_at :datetime</text>
<text text-anchor="start" x="755" y="-1118.9" font-family="Times Roman,serif" font-size="14.00">remember_created_at :datetime</text>
<text text-anchor="start" x="755" y="-1101.9" font-family="Times Roman,serif" font-size="14.00">sign_in_count :integer</text>
<text text-anchor="start" x="755" y="-1084.9" font-family="Times Roman,serif" font-size="14.00">current_sign_in_at :datetime</text>
<text text-anchor="start" x="755" y="-1067.9" font-family="Times Roman,serif" font-size="14.00">last_sign_in_at :datetime</text>
<text text-anchor="start" x="755" y="-1050.9" font-family="Times Roman,serif" font-size="14.00">current_sign_in_ip :string</text>
<text text-anchor="start" x="755" y="-1033.9" font-family="Times Roman,serif" font-size="14.00">last_sign_in_ip :string</text>
<text text-anchor="start" x="755" y="-1016.9" font-family="Times Roman,serif" font-size="14.00">authentication_token :string</text>
<text text-anchor="start" x="755" y="-999.9" font-family="Times Roman,serif" font-size="14.00">created_at :datetime</text>
<text text-anchor="start" x="755" y="-982.9" font-family="Times Roman,serif" font-size="14.00">updated_at :datetime</text>
<text text-anchor="start" x="755" y="-965.9" font-family="Times Roman,serif" font-size="14.00">name :string</text>
<text text-anchor="start" x="755" y="-948.9" font-family="Times Roman,serif" font-size="14.00">time_zone :string</text>
<text text-anchor="start" x="755" y="-931.9" font-family="Times Roman,serif" font-size="14.00">moderator :boolean</text>
<text text-anchor="start" x="755" y="-914.9" font-family="Times Roman,serif" font-size="14.00">measurements_count :integer</text>
<text text-anchor="start" x="755" y="-897.9" font-family="Times Roman,serif" font-size="14.00">default_locale :string</text>
<text text-anchor="start" x="755" y="-880.9" font-family="Times Roman,serif" font-size="14.00">confirmation_token :string</text>
<text text-anchor="start" x="755" y="-863.9" font-family="Times Roman,serif" font-size="14.00">confirmed_at :datetime</text>
<text text-anchor="start" x="755" y="-846.9" font-family="Times Roman,serif" font-size="14.00">confirmation_sent_at :datetime</text>
</g>
<!-- User&#45;&gt;BgeigieImport -->
<g id="edge14" class="edge"><title>User&#45;&gt;BgeigieImport</title>
<path fill="none" stroke="#9434f2" d="M802.317,-830.485C800.089,-823.912 797.863,-817.341 795.646,-810.799"/>
<ellipse fill="none" stroke="#9434f2" cx="803.692" cy="-834.542" rx="4.00001" ry="4.00001"/>
<polygon fill="#9434f2" stroke="#9434f2" points="795.615,-810.709 796.667,-799.794 794.01,-805.974 792.405,-801.238 792.405,-801.238 792.405,-801.238 794.01,-805.974 788.143,-802.682 795.615,-810.709 795.615,-810.709"/>
</g>
<!-- Map -->
<g id="node8" class="node"><title>Map</title>
<polyline fill="none" stroke="black" points="988.5,-128 1129.5,-128 "/>
<path fill="none" stroke="black" d="M1129.5,-128C1135.5,-128 1141.5,-134 1141.5,-140"/>
<polyline fill="none" stroke="black" points="1141.5,-140 1141.5,-268 "/>
<path fill="none" stroke="black" d="M1141.5,-268C1141.5,-274 1135.5,-280 1129.5,-280"/>
<polyline fill="none" stroke="black" points="1129.5,-280 988.5,-280 "/>
<path fill="none" stroke="black" d="M988.5,-280C982.5,-280 976.5,-274 976.5,-268"/>
<polyline fill="none" stroke="black" points="976.5,-268 976.5,-140 "/>
<path fill="none" stroke="black" d="M976.5,-140C976.5,-134 982.5,-128 988.5,-128"/>
<text text-anchor="middle" x="1059" y="-263.4" font-family="Times Roman,serif" font-size="14.00">Map</text>
<polyline fill="none" stroke="black" points="976.5,-255 1141.5,-255 "/>
<text text-anchor="start" x="984.5" y="-238.4" font-family="Times Roman,serif" font-size="14.00">id :integer</text>
<text text-anchor="start" x="984.5" y="-221.4" font-family="Times Roman,serif" font-size="14.00">description :text</text>
<text text-anchor="start" x="984.5" y="-204.4" font-family="Times Roman,serif" font-size="14.00">created_at :datetime</text>
<text text-anchor="start" x="984.5" y="-187.4" font-family="Times Roman,serif" font-size="14.00">updated_at :datetime</text>
<text text-anchor="start" x="984.5" y="-170.4" font-family="Times Roman,serif" font-size="14.00">user_id :integer</text>
<text text-anchor="start" x="984.5" y="-153.4" font-family="Times Roman,serif" font-size="14.00">device_id :integer</text>
<text text-anchor="start" x="984.5" y="-136.4" font-family="Times Roman,serif" font-size="14.00">name :string</text>
</g>
<!-- User&#45;&gt;Map -->
<g id="edge18" class="edge"><title>User&#45;&gt;Map</title>
<path fill="none" stroke="#4ee260" d="M884.481,-830.117C893.233,-687.906 907.739,-514.204 929,-444 945.514,-389.471 975.192,-333.222 1002.03,-288.897"/>
<ellipse fill="none" stroke="#4ee260" cx="884.234" cy="-834.155" rx="4" ry="4"/>
<polygon fill="#4ee260" stroke="#4ee260" points="1002.13,-288.725 1011.19,-282.544 1004.74,-284.46 1007.35,-280.195 1007.35,-280.195 1007.35,-280.195 1004.74,-284.46 1003.51,-277.847 1002.13,-288.725 1002.13,-288.725"/>
</g>
<!-- User&#45;&gt;Measurement -->
<g id="edge16" class="edge"><title>User&#45;&gt;Measurement</title>
<path fill="none" stroke="#9147c3" d="M967.262,-830.775C970.261,-823.983 973.259,-817.192 976.243,-810.433"/>
<ellipse fill="none" stroke="#9147c3" cx="965.541" cy="-834.671" rx="4.00002" ry="4.00002"/>
<polygon fill="#9147c3" stroke="#9147c3" points="976.264,-810.386 984.42,-803.056 978.283,-805.812 980.303,-801.238 980.303,-801.238 980.303,-801.238 978.283,-805.812 976.186,-799.42 976.264,-810.386 976.264,-810.386"/>
</g>
<!-- BgeigieLog -->
<g id="node13" class="node"><title>BgeigieLog</title>
<polyline fill="none" stroke="black" points="651.5,-9 902.5,-9 "/>
<path fill="none" stroke="black" d="M902.5,-9C908.5,-9 914.5,-15 914.5,-21"/>
<polyline fill="none" stroke="black" points="914.5,-21 914.5,-387 "/>
<path fill="none" stroke="black" d="M914.5,-387C914.5,-393 908.5,-399 902.5,-399"/>
<polyline fill="none" stroke="black" points="902.5,-399 651.5,-399 "/>
<path fill="none" stroke="black" d="M651.5,-399C645.5,-399 639.5,-393 639.5,-387"/>
<polyline fill="none" stroke="black" points="639.5,-387 639.5,-21 "/>
<path fill="none" stroke="black" d="M639.5,-21C639.5,-15 645.5,-9 651.5,-9"/>
<text text-anchor="middle" x="777" y="-382.4" font-family="Times Roman,serif" font-size="14.00">BgeigieLog</text>
<polyline fill="none" stroke="black" points="639.5,-374 914.5,-374 "/>
<text text-anchor="start" x="647.5" y="-357.4" font-family="Times Roman,serif" font-size="14.00">id :integer</text>
<text text-anchor="start" x="647.5" y="-340.4" font-family="Times Roman,serif" font-size="14.00">device_tag :string</text>
<text text-anchor="start" x="647.5" y="-323.4" font-family="Times Roman,serif" font-size="14.00">device_serial_id :string</text>
<text text-anchor="start" x="647.5" y="-306.4" font-family="Times Roman,serif" font-size="14.00">captured_at :datetime</text>
<text text-anchor="start" x="647.5" y="-289.4" font-family="Times Roman,serif" font-size="14.00">cpm :integer</text>
<text text-anchor="start" x="647.5" y="-272.4" font-family="Times Roman,serif" font-size="14.00">counts_per_five_seconds :integer</text>
<text text-anchor="start" x="647.5" y="-255.4" font-family="Times Roman,serif" font-size="14.00">total_counts :integer</text>
<text text-anchor="start" x="647.5" y="-238.4" font-family="Times Roman,serif" font-size="14.00">cpm_validity :string</text>
<text text-anchor="start" x="647.5" y="-221.4" font-family="Times Roman,serif" font-size="14.00">latitude_nmea :decimal</text>
<text text-anchor="start" x="647.5" y="-204.4" font-family="Times Roman,serif" font-size="14.00">north_south_indicator :string</text>
<text text-anchor="start" x="647.5" y="-187.4" font-family="Times Roman,serif" font-size="14.00">longitude_nmea :decimal</text>
<text text-anchor="start" x="647.5" y="-170.4" font-family="Times Roman,serif" font-size="14.00">east_west_indicator :string</text>
<text text-anchor="start" x="647.5" y="-153.4" font-family="Times Roman,serif" font-size="14.00">altitude :float</text>
<text text-anchor="start" x="647.5" y="-136.4" font-family="Times Roman,serif" font-size="14.00">gps_fix_indicator :string</text>
<text text-anchor="start" x="647.5" y="-119.4" font-family="Times Roman,serif" font-size="14.00">horizontal_dilution_of_precision :float</text>
<text text-anchor="start" x="647.5" y="-102.4" font-family="Times Roman,serif" font-size="14.00">gps_fix_quality_indicator :string</text>
<text text-anchor="start" x="647.5" y="-85.4" font-family="Times Roman,serif" font-size="14.00">created_at :datetime</text>
<text text-anchor="start" x="647.5" y="-68.4" font-family="Times Roman,serif" font-size="14.00">updated_at :datetime</text>
<text text-anchor="start" x="647.5" y="-51.4" font-family="Times Roman,serif" font-size="14.00">bgeigie_import_id :integer</text>
<text text-anchor="start" x="647.5" y="-34.4" font-family="Times Roman,serif" font-size="14.00">computed_location :spatial</text>
<text text-anchor="start" x="647.5" y="-17.4" font-family="Times Roman,serif" font-size="14.00">md5sum :string</text>
</g>
<!-- BgeigieImport&#45;&gt;BgeigieLog -->
<g id="edge22" class="edge"><title>BgeigieImport&#45;&gt;BgeigieLog</title>
<path fill="none" stroke="#589409" d="M752.022,-436.575C752.989,-427.573 753.962,-418.514 754.933,-409.465"/>
<ellipse fill="none" stroke="#589409" cx="751.576" cy="-440.722" rx="4" ry="4"/>
<polygon fill="#589409" stroke="#589409" points="754.962,-409.199 760.504,-399.736 755.496,-404.227 756.03,-399.256 756.03,-399.256 756.03,-399.256 755.496,-404.227 751.556,-398.775 754.962,-409.199 754.962,-409.199"/>
</g>
<!-- DriveLog -->
<g id="node9" class="node"><title>DriveLog</title>
<polyline fill="none" stroke="black" points="360.5,-0.5 557.5,-0.5 "/>
<path fill="none" stroke="black" d="M557.5,-0.5C563.5,-0.5 569.5,-6.5 569.5,-12.5"/>
<polyline fill="none" stroke="black" points="569.5,-12.5 569.5,-395.5 "/>
<path fill="none" stroke="black" d="M569.5,-395.5C569.5,-401.5 563.5,-407.5 557.5,-407.5"/>
<polyline fill="none" stroke="black" points="557.5,-407.5 360.5,-407.5 "/>
<path fill="none" stroke="black" d="M360.5,-407.5C354.5,-407.5 348.5,-401.5 348.5,-395.5"/>
<polyline fill="none" stroke="black" points="348.5,-395.5 348.5,-12.5 "/>
<path fill="none" stroke="black" d="M348.5,-12.5C348.5,-6.5 354.5,-0.5 360.5,-0.5"/>
<text text-anchor="middle" x="459" y="-390.9" font-family="Times Roman,serif" font-size="14.00">DriveLog</text>
<polyline fill="none" stroke="black" points="348.5,-382.5 569.5,-382.5 "/>
<text text-anchor="start" x="356.5" y="-365.9" font-family="Times Roman,serif" font-size="14.00">id :integer</text>
<text text-anchor="start" x="356.5" y="-348.9" font-family="Times Roman,serif" font-size="14.00">drive_import_id :integer</text>
<text text-anchor="start" x="356.5" y="-331.9" font-family="Times Roman,serif" font-size="14.00">reading_date :datetime</text>
<text text-anchor="start" x="356.5" y="-314.9" font-family="Times Roman,serif" font-size="14.00">reading_value :float</text>
<text text-anchor="start" x="356.5" y="-297.9" font-family="Times Roman,serif" font-size="14.00">unit_id :integer</text>
<text text-anchor="start" x="356.5" y="-280.9" font-family="Times Roman,serif" font-size="14.00">alt_reading_value :float</text>
<text text-anchor="start" x="356.5" y="-263.9" font-family="Times Roman,serif" font-size="14.00">alt_unit_id :integer</text>
<text text-anchor="start" x="356.5" y="-246.9" font-family="Times Roman,serif" font-size="14.00">rolling_count :integer</text>
<text text-anchor="start" x="356.5" y="-229.9" font-family="Times Roman,serif" font-size="14.00">total_count :integer</text>
<text text-anchor="start" x="356.5" y="-212.9" font-family="Times Roman,serif" font-size="14.00">latitude :float</text>
<text text-anchor="start" x="356.5" y="-195.9" font-family="Times Roman,serif" font-size="14.00">longitude :float</text>
<text text-anchor="start" x="356.5" y="-178.9" font-family="Times Roman,serif" font-size="14.00">gps_quality_indicator :integer</text>
<text text-anchor="start" x="356.5" y="-161.9" font-family="Times Roman,serif" font-size="14.00">satellite_num :integer</text>
<text text-anchor="start" x="356.5" y="-144.9" font-family="Times Roman,serif" font-size="14.00">gps_precision :float</text>
<text text-anchor="start" x="356.5" y="-127.9" font-family="Times Roman,serif" font-size="14.00">gps_altitude :float</text>
<text text-anchor="start" x="356.5" y="-110.9" font-family="Times Roman,serif" font-size="14.00">gps_device_name :string</text>
<text text-anchor="start" x="356.5" y="-93.9" font-family="Times Roman,serif" font-size="14.00">measurement_type :string</text>
<text text-anchor="start" x="356.5" y="-76.9" font-family="Times Roman,serif" font-size="14.00">zoom_7_grid :string</text>
<text text-anchor="start" x="356.5" y="-59.9" font-family="Times Roman,serif" font-size="14.00">created_at :datetime</text>
<text text-anchor="start" x="356.5" y="-42.9" font-family="Times Roman,serif" font-size="14.00">updated_at :datetime</text>
<text text-anchor="start" x="356.5" y="-25.9" font-family="Times Roman,serif" font-size="14.00">location :spatial</text>
<text text-anchor="start" x="356.5" y="-8.9" font-family="Times Roman,serif" font-size="14.00">md5sum :string</text>
</g>
<!-- DriveImport&#45;&gt;DriveLog -->
<g id="edge30" class="edge"><title>DriveImport&#45;&gt;DriveLog</title>
<path fill="none" stroke="#df12a4" d="M455.113,-436.64C455.216,-430.481 455.32,-424.295 455.423,-418.104"/>
<ellipse fill="none" stroke="#df12a4" cx="455.046" cy="-440.699" rx="4" ry="4"/>
<polygon fill="#df12a4" stroke="#df12a4" points="455.43,-417.682 460.097,-407.758 455.514,-412.682 455.597,-407.683 455.597,-407.683 455.597,-407.683 455.514,-412.682 451.098,-407.608 455.43,-417.682 455.43,-417.682"/>
</g>
<!-- Measurement&#45;&gt;Map -->
<g id="edge34" class="edge"><title>Measurement&#45;&gt;Map</title>
<path fill="none" stroke="#64f0bf" d="M1059,-434.548C1059,-384.199 1059,-332.212 1059,-290.377"/>
<polygon fill="#64f0bf" stroke="#64f0bf" points="1059,-434.699 1054.5,-444.699 1059,-439.699 1059,-444.699 1059,-444.699 1059,-444.699 1059,-439.699 1063.5,-444.699 1059,-434.699 1059,-434.699"/>
<polygon fill="#64f0bf" stroke="#64f0bf" points="1059,-290.243 1063.5,-280.243 1059,-285.243 1059,-280.243 1059,-280.243 1059,-280.243 1059,-285.243 1054.5,-280.243 1059,-290.243 1059,-290.243"/>
</g>
<!-- BgeigieImport::StateConcerns -->
<g id="node14" class="node"><title>BgeigieImport::StateConcerns</title>
<polygon fill="none" stroke="black" stroke-dasharray="1,5" points="1649,-1344 1427,-1344 1427,-1308 1649,-1308 1649,-1344"/>
<text text-anchor="middle" x="1538" y="-1321.9" font-family="Times Roman,serif" font-size="14.00">BgeigieImport::StateConcerns</text>
</g>
<!-- ActiveRecord::Base -->
<g id="node16" class="node"><title>ActiveRecord::Base</title>
<ellipse fill="none" stroke="black" cx="719" cy="-1326" rx="102.843" ry="18"/>
<text text-anchor="middle" x="719" y="-1321.9" font-family="Times Roman,serif" font-size="14.00">ActiveRecord::Base</text>
</g>
<!-- ActiveRecord::Base&#45;&gt;MeasurementImport -->
<g id="edge4" class="edge"><title>ActiveRecord::Base&#45;&gt;MeasurementImport</title>
<path fill="none" stroke="black" d="M688.709,-1308.74C664.864,-1294.14 631.797,-1271.55 608,-1246 600.411,-1237.85 593.033,-1229.18 585.903,-1220.18"/>
</g>
<!-- ActiveRecord::Base&#45;&gt;Admin -->
<g id="edge6" class="edge"><title>ActiveRecord::Base&#45;&gt;Admin</title>
<path fill="none" stroke="black" d="M682.382,-1309.15C660.843,-1299.87 632.843,-1288.87 607,-1282 500.211,-1253.61 454.381,-1305.07 361,-1246 330.963,-1227 306.052,-1198.69 286.118,-1169.17"/>
</g>
<!-- ActiveRecord::Base&#45;&gt;Device -->
<g id="edge12" class="edge"><title>ActiveRecord::Base&#45;&gt;Device</title>
<path fill="none" stroke="black" d="M795.821,-1313.92C878.689,-1299.7 1004.02,-1274.41 1043,-1246 1086.82,-1214.07 1118.66,-1161.82 1139.38,-1118.19"/>
</g>
<!-- ActiveRecord::Base&#45;&gt;User -->
<g id="edge20" class="edge"><title>ActiveRecord::Base&#45;&gt;User</title>
<path fill="none" stroke="black" d="M728.932,-1307.8C736.883,-1293.23 748.975,-1271.08 762.853,-1245.65"/>
</g>
<!-- ActiveRecord::Base&#45;&gt;Map -->
<g id="edge26" class="edge"><title>ActiveRecord::Base&#45;&gt;Map</title>
<path fill="none" stroke="black" d="M815.01,-1319.35C969.545,-1307.65 1259.33,-1281.26 1290,-1246 1349.5,-1177.59 1301.35,-927.954 1290,-838 1267.38,-658.648 1254.99,-612.298 1189,-444 1166.6,-386.869 1133.6,-326.124 1106.45,-280.041"/>
</g>
<!-- ActiveRecord::Base&#45;&gt;DriveLog -->
<g id="edge28" class="edge"><title>ActiveRecord::Base&#45;&gt;DriveLog</title>
<path fill="none" stroke="black" d="M705.263,-1308C694.139,-1292.45 679.042,-1268.93 671,-1246 605.088,-1058.1 634.845,-999.694 611,-802 591.84,-643.146 616.387,-598.01 573,-444 569.623,-432.012 565.69,-419.883 561.356,-407.776"/>
</g>
<!-- ActiveRecord::Base&#45;&gt;Measurement -->
<g id="edge36" class="edge"><title>ActiveRecord::Base&#45;&gt;Measurement</title>
<path fill="none" stroke="black" d="M798.738,-1314.5C875.3,-1301.7 983.178,-1278.47 1010,-1246 1024.13,-1228.89 1040.22,-979.143 1049.98,-801.13"/>
</g>
<!-- ActiveRecord::Base&#45;&gt;MeasurementImportLog -->
<g id="edge38" class="edge"><title>ActiveRecord::Base&#45;&gt;MeasurementImportLog</title>
<path fill="none" stroke="black" d="M683.566,-1308.86C661.961,-1299.23 633.493,-1287.98 607,-1282 550.72,-1269.3 128.356,-1288.19 89,-1246 -56.5414,-1089.99 40.8642,-805.163 93.4927,-682.161"/>
</g>
<!-- ActiveRecord::Base&#45;&gt;BgeigieLog -->
<g id="edge40" class="edge"><title>ActiveRecord::Base&#45;&gt;BgeigieLog</title>
<path fill="none" stroke="black" d="M713.005,-1307.61C691.478,-1237.76 625.16,-985.462 738,-838 770.547,-795.467 821.287,-845.158 853,-802 900.108,-737.891 865.151,-522.622 853,-444 850.73,-429.314 847.723,-414.296 844.214,-399.293"/>
</g>
<!-- Object -->
<g id="node19" class="node"><title>Object</title>
<ellipse fill="none" stroke="black" cx="1367" cy="-1326" rx="41.8891" ry="18"/>
<text text-anchor="middle" x="1367" y="-1321.9" font-family="Times Roman,serif" font-size="14.00">Object</text>
</g>
<!-- Object&#45;&gt;Ability -->
<g id="edge8" class="edge"><title>Object&#45;&gt;Ability</title>
<path fill="none" stroke="black" d="M1367,-1307.8C1367,-1258.71 1367,-1123.47 1367,-1067.14"/>
</g>
</g>
</svg>
